<svg xmlns="http://www.w3.org/2000/svg" viewBox="0 0 24 24" fill="none">
    <path fill="#fff" d="M20.32 4.37A17.22 17.22 0 0 0 15.54 3l-.55 1.17a15.61 15.61 0 0 0-5-.01L9.43 3a16.97 16.97 0 0 0-4.78 1.35 18.45 18.45 0 0 0-2.97 12.4 16.41 16.41 0 0 0 5.84 2.96l.82-2.65-1.37-.46.36-1.16c1.47.49 2.94.73 4.4.73 1.46 0 2.93-.24 4.4-.73l.37 1.16-1.38.46.82 2.65a16.4 16.4 0 0 0 5.84-2.96 18.46 18.46 0 0 0-2.94-12.37zM8.88 14.47c-.85 0-1.54-.82-1.54-1.83s.69-1.82 1.54-1.82c.85 0 1.54.82 1.54 1.82 0 1.01-.69 1.83-1.54 1.83zm6.24 0c-.85 0-1.54-.82-1.54-1.83s.69-1.82 1.54-1.82S16.66 11.64 16.66 12.64s-.69 1.83-1.54 1.83z"/>
</svg>
