<svg xmlns="http://www.w3.org/2000/svg" viewBox="0 0 24 24" fill="none">
    <path fill="#fff" d="M12 2a10 10 0 0 0-3.16 19.49c.5.09.68-.22.68-.48v-1.7c-2.77.6-3.36-1.34-3.36-1.34-.45-1.15-1.1-1.46-1.1-1.46-.9-.61.07-.6.07-.6 1 .07 1.53 1.04 1.53 1.04.9 1.53 2.36 1.09 2.94.83.09-.66.35-1.1.64-1.36-2.21-.25-4.54-1.12-4.54-4.96 0-1.1.39-1.99 1.03-2.69-.1-.25-.45-1.26.1-2.63 0 0 .83-.27 2.72 1.02a9.48 9.48 0 0 1 4.95 0c1.89-1.29 2.72-1.02 2.72-1.02.55 1.37.2 2.38.1 2.63.64.7 1.03 1.59 1.03 2.69 0 3.85-2.33 4.7-4.55 4.95.36.31.68.92.68 1.86v2.75c0 .27.18.58.69.48A10 10 0 0 0 12 2z"/>
</svg>
