<svg xmlns="http://www.w3.org/2000/svg" viewBox="0 0 24 24" fill="none">
    <path fill="#fff" d="M12.24 10.56v3.03h5.01c-.2 1.29-.88 2.38-1.88 3.11l3.04 2.36c1.77-1.64 2.79-4.05 2.79-6.86 0-.65-.06-1.28-.17-1.88h-8.79z"/>
    <path fill="#fff" d="M6.36 13.44l-.64-.05-3.01 2.35c1.37 2.72 4.21 4.59 7.48 4.59 2.27 0 4.18-.75 5.58-2.02l-3.04-2.36c-.84.56-1.91.9-3.02.9-2.33 0-4.31-1.57-5.02-3.74z"/>
    <path fill="#fff" d="M3.35 9.34 0 7a11.94 11.94 0 0 0 0 10l3.35-2.34a7.18 7.18 0 0 1 0-5.31z"/>
    <path fill="#fff" d="M10.19 5.75c1.25 0 2.37.43 3.25 1.28l2.43-2.42C14.06 2.91 12.15 2 10.19 2 6.92 2 4.09 3.88 2.71 6.6l3.35 2.35c.72-2.17 2.7-3.74 5.03-3.74z"/>
</svg>
